<svg width="31" height="31" viewBox="0 0 31 31" fill="none" xmlns="http://www.w3.org/2000/svg">
<path d="M10.85 3.875H5.94167C5.21827 3.875 4.85656 3.875 4.58026 4.01578C4.33722 4.13962 4.13962 4.33722 4.01578 4.58026C3.875 4.85656 3.875 5.21827 3.875 5.94167V10.85C3.875 11.5734 3.875 11.9351 4.01578 12.2114C4.13962 12.4544 4.33722 12.652 4.58026 12.7759C4.85656 12.9167 5.21827 12.9167 5.94167 12.9167H10.85C11.5734 12.9167 11.9351 12.9167 12.2114 12.7759C12.4544 12.652 12.652 12.4544 12.7759 12.2114C12.9167 11.9351 12.9167 11.5734 12.9167 10.85V5.94167C12.9167 5.21827 12.9167 4.85656 12.7759 4.58026C12.652 4.33722 12.4544 4.13962 12.2114 4.01578C11.9351 3.875 11.5734 3.875 10.85 3.875Z" stroke="black" stroke-width="2" stroke-linecap="round" stroke-linejoin="round"/>
<path d="M25.0583 3.875H20.15C19.4266 3.875 19.0649 3.875 18.7886 4.01578C18.5456 4.13962 18.348 4.33722 18.2241 4.58026C18.0833 4.85656 18.0833 5.21827 18.0833 5.94167V10.85C18.0833 11.5734 18.0833 11.9351 18.2241 12.2114C18.348 12.4544 18.5456 12.652 18.7886 12.7759C19.0649 12.9167 19.4266 12.9167 20.15 12.9167H25.0583C25.7817 12.9167 26.1434 12.9167 26.4197 12.7759C26.6628 12.652 26.8604 12.4544 26.9842 12.2114C27.125 11.9351 27.125 11.5734 27.125 10.85V5.94167C27.125 5.21827 27.125 4.85656 26.9842 4.58026C26.8604 4.33722 26.6628 4.13962 26.4197 4.01578C26.1434 3.875 25.7817 3.875 25.0583 3.875Z" stroke="black" stroke-width="2" stroke-linecap="round" stroke-linejoin="round"/>
<path d="M25.0583 18.0833H20.15C19.4266 18.0833 19.0649 18.0833 18.7886 18.2241C18.5456 18.348 18.348 18.5456 18.2241 18.7886C18.0833 19.0649 18.0833 19.4266 18.0833 20.15V25.0583C18.0833 25.7817 18.0833 26.1434 18.2241 26.4197C18.348 26.6628 18.5456 26.8604 18.7886 26.9842C19.0649 27.125 19.4266 27.125 20.15 27.125H25.0583C25.7817 27.125 26.1434 27.125 26.4197 26.9842C26.6628 26.8604 26.8604 26.6628 26.9842 26.4197C27.125 26.1434 27.125 25.7817 27.125 25.0583V20.15C27.125 19.4266 27.125 19.0649 26.9842 18.7886C26.8604 18.5456 26.6628 18.348 26.4197 18.2241C26.1434 18.0833 25.7817 18.0833 25.0583 18.0833Z" stroke="black" stroke-width="2" stroke-linecap="round" stroke-linejoin="round"/>
<path d="M10.85 18.0833H5.94167C5.21827 18.0833 4.85656 18.0833 4.58026 18.2241C4.33722 18.348 4.13962 18.5456 4.01578 18.7886C3.875 19.0649 3.875 19.4266 3.875 20.15V25.0583C3.875 25.7817 3.875 26.1434 4.01578 26.4197C4.13962 26.6628 4.33722 26.8604 4.58026 26.9842C4.85656 27.125 5.21827 27.125 5.94167 27.125H10.85C11.5734 27.125 11.9351 27.125 12.2114 26.9842C12.4544 26.8604 12.652 26.6628 12.7759 26.4197C12.9167 26.1434 12.9167 25.7817 12.9167 25.0583V20.15C12.9167 19.4266 12.9167 19.0649 12.7759 18.7886C12.652 18.5456 12.4544 18.348 12.2114 18.2241C11.9351 18.0833 11.5734 18.0833 10.85 18.0833Z" stroke="black" stroke-width="2" stroke-linecap="round" stroke-linejoin="round"/>
</svg>
