<svg width="35" height="35" viewBox="0 0 35 35" fill="none" xmlns="http://www.w3.org/2000/svg">
<path d="M15.4376 19.5624C14.2986 18.4233 14.2986 16.5766 15.4376 15.4376C16.5766 14.2985 18.4234 14.2985 19.5624 15.4376C20.7014 16.5766 20.7014 18.4233 19.5624 19.5624M11.3128 23.6871C7.89572 20.2701 7.89572 14.7299 11.3128 11.3128C14.7299 7.89569 20.2701 7.89569 23.6872 11.3128C27.1043 14.7299 27.1043 20.2701 23.6872 23.6871M7.18802 27.8119C1.49287 22.1168 1.49287 12.8831 7.18802 7.18799C12.8832 1.49284 22.1168 1.49284 27.812 7.18799C33.5071 12.8831 33.5071 22.1168 27.812 27.8119" stroke="black" stroke-width="2" stroke-linecap="round" stroke-linejoin="round"/>
</svg>
