<svg width="131" height="27" viewBox="0 0 131 27" fill="none" xmlns="http://www.w3.org/2000/svg">
<g clip-path="url(#clip0_51_85)">
<path d="M4.75928 17.8059C4.75928 19.358 5.08977 20.5497 5.52173 21.2706C6.08808 22.2149 6.93281 22.615 7.79399 22.615C8.90475 22.615 9.92089 22.3308 11.8791 19.539C13.4479 17.3012 15.2964 14.1602 16.5402 12.191L18.6465 8.85487C20.1097 6.53796 21.8033 3.96236 23.745 2.21654C25.3303 0.791623 27.0403 0 28.7613 0C31.6506 0 34.4029 1.72602 36.5092 4.96319C38.8144 8.50853 39.9333 12.9741 39.9333 17.5825C39.9333 20.3221 39.4095 22.3351 38.5182 23.9254C37.657 25.4634 35.9785 27 33.155 27V22.615C35.5726 22.615 36.176 20.3249 36.176 17.7041C36.176 13.9693 35.3312 9.82461 33.4704 6.86309C32.1498 4.76246 30.4384 3.4789 28.5556 3.4789C26.5192 3.4789 24.8805 5.06215 23.0388 7.88513C22.0597 9.38497 21.0545 11.2128 19.926 13.2752L18.6835 15.5441C16.1878 20.1058 15.5556 21.1448 14.3077 22.8595C12.1205 25.862 10.2527 27 7.79399 27C4.87722 27 3.03281 25.6981 1.89051 23.736C0.958017 22.1372 0.5 20.0394 0.5 17.649L4.75928 17.8059Z" fill="#0081FB"/>
<path d="M3.85834 5.27277C5.81108 2.16989 8.62912 0 11.8613 0C13.7331 0 15.594 0.571099 17.5371 2.20665C19.6627 3.99487 21.9281 6.93942 24.7543 11.7924L25.7677 13.5339C28.2141 17.7352 29.606 19.8966 30.4206 20.9158C31.4682 22.2248 32.2019 22.615 33.155 22.615C35.5726 22.615 36.1759 20.3249 36.1759 17.7041L39.9333 17.5825C39.9333 20.3221 39.4095 22.3351 38.5181 23.9254C37.657 25.4634 35.9785 27 33.155 27C31.3997 27 29.8446 26.607 28.125 24.9347C26.8031 23.6512 25.2576 21.371 24.0687 19.3213L20.5321 13.2314C18.7576 10.1752 17.1299 7.89644 16.1878 6.8645C15.1744 5.75482 13.8716 4.41471 11.7927 4.41471C10.1101 4.41471 8.68123 5.63183 7.48545 7.49356L3.85834 5.27277Z" fill="url(#paint0_linear_51_85)"/>
<path d="M11.7927 4.41471C10.1101 4.41471 8.68122 5.63183 7.48544 7.49356C5.79462 10.1243 4.75928 14.0428 4.75928 17.8059C4.75928 19.358 5.08977 20.5497 5.52173 21.2706L1.89051 23.736C0.958017 22.1372 0.5 20.0394 0.5 17.649C0.5 13.3021 1.65738 8.77147 3.85833 5.27278C5.81107 2.1699 8.62911 0 11.8613 0L11.7927 4.41471Z" fill="url(#paint1_linear_51_85)"/>
<path d="M48.2133 0.853882H53.1404L61.5177 16.4771L69.8964 0.853882H74.7165V26.5251H70.6972V6.85043L63.3498 20.4748H59.5787L52.2326 6.85043V26.5251H48.2133V0.853882ZM87.3106 10.4255C84.4281 10.4255 82.6921 12.6618 82.2766 15.4311H92.0595C91.8579 12.5784 90.2617 10.4255 87.3106 10.4255ZM78.2915 17.0086C78.2915 11.1817 81.9447 6.9409 87.3806 6.9409C92.7273 6.9409 95.9197 11.128 95.9197 17.3196V18.4576H82.2766C82.7606 21.47 84.6996 23.5 87.8262 23.5C90.3206 23.5 91.8798 22.7154 93.3581 21.2806L95.4932 23.9763C93.4815 25.8833 90.9226 26.9831 87.6836 26.9831C81.7993 26.9831 78.2915 22.5599 78.2915 17.0086ZM100.793 10.793H97.0935V7.40032H100.793V1.78969H104.671V7.40032H110.292V10.793H104.671V19.392C104.671 22.3281 105.582 23.3713 107.82 23.3713C108.842 23.3713 109.427 23.2808 110.292 23.1324V26.4883C109.215 26.8022 108.186 26.9463 107.073 26.9463C102.886 26.9463 100.793 24.5884 100.793 19.8684V10.793ZM126.622 14.0924C125.843 12.0652 124.106 10.5725 121.552 10.5725C118.234 10.5725 116.109 12.9996 116.109 16.9535C116.109 20.8084 118.065 23.3529 121.393 23.3529C124.01 23.3529 125.877 21.7838 126.622 19.8316V14.0924ZM130.5 26.5251H126.693V23.8477C125.629 25.4239 123.693 26.9831 120.557 26.9831C115.513 26.9831 112.142 22.6306 112.142 16.9535C112.142 11.2227 115.594 6.9409 120.771 6.9409C123.329 6.9409 125.337 7.99545 126.693 9.85718V7.40032H130.5V26.5251Z" fill="#192830"/>
</g>
<defs>
<linearGradient id="paint0_linear_51_85" x1="8.86498" y1="16.5393" x2="36.021" y2="17.8697" gradientUnits="userSpaceOnUse">
<stop stop-color="#0064E1"/>
<stop offset="0.4" stop-color="#0064E1"/>
<stop offset="0.83" stop-color="#0073EE"/>
<stop offset="1" stop-color="#0082FB"/>
</linearGradient>
<linearGradient id="paint1_linear_51_85" x1="6.67088" y1="19.6492" x2="6.67088" y2="9.32984" gradientUnits="userSpaceOnUse">
<stop stop-color="#0082FB"/>
<stop offset="1" stop-color="#0064E0"/>
</linearGradient>
<clipPath id="clip0_51_85">
<rect width="130" height="27" fill="white" transform="translate(0.5)"/>
</clipPath>
</defs>
</svg>
