<svg width="130" height="27" viewBox="0 0 130 27" fill="none" xmlns="http://www.w3.org/2000/svg">
<g clip-path="url(#clip0_51_91)">
<path d="M4.25928 17.8059C4.25928 19.358 4.58977 20.5497 5.02173 21.2706C5.58808 22.2149 6.43281 22.615 7.29399 22.615C8.40475 22.615 9.42089 22.3308 11.3791 19.539C12.9479 17.3012 14.7964 14.1602 16.0402 12.191L18.1465 8.85487C19.6097 6.53796 21.3033 3.96236 23.245 2.21654C24.8303 0.791623 26.5403 0 28.2613 0C31.1506 0 33.9029 1.72602 36.0092 4.96319C38.3144 8.50853 39.4333 12.9741 39.4333 17.5825C39.4333 20.3221 38.9095 22.3351 38.0182 23.9254C37.157 25.4634 35.4785 27 32.655 27V22.615C35.0726 22.615 35.676 20.3249 35.676 17.7041C35.676 13.9693 34.8312 9.82461 32.9704 6.86309C31.6498 4.76246 29.9384 3.4789 28.0556 3.4789C26.0192 3.4789 24.3805 5.06215 22.5388 7.88513C21.5597 9.38497 20.5545 11.2128 19.426 13.2752L18.1835 15.5441C15.6878 20.1058 15.0556 21.1448 13.8077 22.8595C11.6205 25.862 9.75274 27 7.29399 27C4.37722 27 2.53281 25.6981 1.39051 23.736C0.458017 22.1372 0 20.0394 0 17.649L4.25928 17.8059Z" fill="#0081FB"/>
<path d="M3.35834 5.27277C5.31108 2.16989 8.12912 0 11.3613 0C13.2331 0 15.094 0.571099 17.0371 2.20665C19.1627 3.99487 21.4281 6.93942 24.2543 11.7924L25.2677 13.5339C27.7141 17.7352 29.106 19.8966 29.9206 20.9158C30.9682 22.2248 31.7019 22.615 32.655 22.615C35.0726 22.615 35.6759 20.3249 35.6759 17.7041L39.4333 17.5825C39.4333 20.3221 38.9095 22.3351 38.0181 23.9254C37.157 25.4634 35.4785 27 32.655 27C30.8997 27 29.3446 26.607 27.625 24.9347C26.3031 23.6512 24.7576 21.371 23.5687 19.3213L20.0321 13.2314C18.2576 10.1752 16.6299 7.89644 15.6878 6.8645C14.6744 5.75482 13.3716 4.41471 11.2927 4.41471C9.61013 4.41471 8.18123 5.63183 6.98545 7.49356L3.35834 5.27277Z" fill="url(#paint0_linear_51_91)"/>
<path d="M11.2927 4.41471C9.61012 4.41471 8.18122 5.63183 6.98544 7.49356C5.29462 10.1243 4.25928 14.0428 4.25928 17.8059C4.25928 19.358 4.58977 20.5497 5.02173 21.2706L1.39051 23.736C0.458017 22.1372 0 20.0394 0 17.649C0 13.3021 1.15738 8.77147 3.35833 5.27278C5.31107 2.1699 8.12911 0 11.3613 0L11.2927 4.41471Z" fill="url(#paint1_linear_51_91)"/>
<path d="M47.7133 0.853882H52.6404L61.0177 16.4771L69.3964 0.853882H74.2166V26.5251H70.1973V6.85043L62.8498 20.4748H59.0787L51.7326 6.85043V26.5251H47.7133V0.853882ZM86.8106 10.4255C83.9282 10.4255 82.1921 12.6618 81.7766 15.4311H91.5595C91.3579 12.5784 89.7617 10.4255 86.8106 10.4255ZM77.7916 17.0086C77.7916 11.1817 81.4447 6.9409 86.8806 6.9409C92.2273 6.9409 95.4197 11.128 95.4197 17.3196V18.4576H81.7766C82.2607 21.47 84.1997 23.5 87.3263 23.5C89.8207 23.5 91.3798 22.7154 92.8581 21.2806L94.9932 23.9763C92.9815 25.8833 90.4227 26.9831 87.1836 26.9831C81.2994 26.9831 77.7916 22.5599 77.7916 17.0086ZM100.293 10.793H96.5936V7.40032H100.293V1.78969H104.171V7.40032H109.792V10.793H104.171V19.392C104.171 22.3281 105.082 23.3713 107.32 23.3713C108.342 23.3713 108.927 23.2808 109.792 23.1324V26.4883C108.715 26.8022 107.686 26.9463 106.573 26.9463C102.386 26.9463 100.293 24.5884 100.293 19.8684V10.793ZM126.122 14.0924C125.343 12.0652 123.606 10.5725 121.052 10.5725C117.734 10.5725 115.609 12.9996 115.609 16.9535C115.609 20.8084 117.565 23.3529 120.893 23.3529C123.51 23.3529 125.377 21.7838 126.122 19.8316V14.0924ZM130 26.5251H126.193V23.8477C125.129 25.4239 123.193 26.9831 120.057 26.9831C115.013 26.9831 111.642 22.6306 111.642 16.9535C111.642 11.2227 115.094 6.9409 120.271 6.9409C122.829 6.9409 124.837 7.99545 126.193 9.85718V7.40032H130V26.5251Z" fill="white"/>
</g>
<defs>
<linearGradient id="paint0_linear_51_91" x1="8.36498" y1="16.5393" x2="35.521" y2="17.8697" gradientUnits="userSpaceOnUse">
<stop stop-color="#0064E1"/>
<stop offset="0.4" stop-color="#0064E1"/>
<stop offset="0.83" stop-color="#0073EE"/>
<stop offset="1" stop-color="#0082FB"/>
</linearGradient>
<linearGradient id="paint1_linear_51_91" x1="6.17088" y1="19.6492" x2="6.17088" y2="9.32984" gradientUnits="userSpaceOnUse">
<stop stop-color="#0082FB"/>
<stop offset="1" stop-color="#0064E0"/>
</linearGradient>
<clipPath id="clip0_51_91">
<rect width="130" height="27" fill="white"/>
</clipPath>
</defs>
</svg>
